<svg width="72" height="72" viewBox="0 0 72 72" fill="none" xmlns="http://www.w3.org/2000/svg">
<path d="M36 3C17.7741 3 3 17.7741 3 36C3 54.2259 17.7741 69 36 69C54.2259 69 69 54.2259 69 36C69 17.7741 54.2259 3 36 3Z" stroke="white" stroke-width="4.95" stroke-linecap="round" stroke-linejoin="round"/>
<path d="M10.4944 56.9418C10.4944 56.9418 17.8501 47.55 36.0001 47.55C54.1501 47.55 61.5091 56.9418 61.5091 56.9418M36.0001 36C38.6257 36 41.1438 34.957 43.0004 33.1004C44.8571 31.2438 45.9001 28.7257 45.9001 26.1C45.9001 23.4744 44.8571 20.9563 43.0004 19.0997C41.1438 17.243 38.6257 16.2 36.0001 16.2C33.3744 16.2 30.8563 17.243 28.9997 19.0997C27.1431 20.9563 26.1001 23.4744 26.1001 26.1C26.1001 28.7257 27.1431 31.2438 28.9997 33.1004C30.8563 34.957 33.3744 36 36.0001 36V36Z" stroke="white" stroke-width="4.95" stroke-linecap="round" stroke-linejoin="round"/>
</svg>
